<svg width="24" height="24" viewBox="0 0 24 24" fill="none" xmlns="http://www.w3.org/2000/svg">
<path d="M21.723 2.277c-1.002-.382-2.028-.57-3.042-.57-1.164 0-2.296.254-3.37.753-4.22 1.96-6.425 7.03-7.513 10.45-.19.59-.37 1.18-.54 1.77-.145.49-.28.98-.405 1.48-.02.08-.04.16-.05.23-.1 1.02.16 1.83.82 2.41.44.38.98.57 1.59.57.57 0 1.1-.18 1.57-.52.41-.3.73-.7.96-1.18.06-.13.12-.26.18-.4.07-.16.14-.32.2-.48.24-.62.5-1.24.77-1.85 1.05-2.4 2.34-4.72 4.09-6.46 2.26-2.25 4.9-3.3 7.64-3.3.18 0 .36 0 .54.02.59.05.97.52.92 1.11-.05.58-.51.98-1.1.92-.12-.01-.24-.02-.36-.02-2.04 0-4.08.8-5.61 2.34-1.3 1.3-2.34 3.12-3.23 5.2-.24.57-.47 1.13-.68 1.7-.05.15-.1.29-.15.44-.06.19-.15.36-.26.51-.12.16-.25.3-.4.41-.18.13-.38.2-.6.2-.33 0-.64-.13-.88-.36-.37-.34-.54-.8-.46-1.3.03-.13.06-.27.1-.4.12-.48.25-.96.39-1.42.17-.58.35-1.17.54-1.75 1.1-3.46 3.32-8.56 7.57-10.53 1.02-.48 2.09-.72 3.18-.72.96 0 1.93.18 2.88.54.54.21.87.78.66 1.32-.21.54-.78.87-1.32.66z" fill="white"/>
</svg>